<?xml version="1.0" encoding="iso-8859-1"?>
<!-- Uploaded to: SVG Repo, www.svgrepo.com, Generator: SVG Repo Mixer Tools -->
<svg fill="#000000" height="800px" width="800px" version="1.1" id="Layer_1" xmlns="http://www.w3.org/2000/svg" xmlns:xlink="http://www.w3.org/1999/xlink" 
	 viewBox="0 0 512.001 512.001" xml:space="preserve">
<g>
	<g>
		<path d="M401.213,115.197c-12.07,0-22.424,5.985-28.121,15.115c-24.269-17.511-54.043-27.845-86.188-27.845
			c-7.546,0-14.62,2.053-20.704,5.618V94.37c0-19.935,16.219-36.155,36.155-36.155c5.632,0,10.199-4.566,10.199-10.199
			c0-5.633-4.567-10.199-10.199-10.199c-31.184,0-56.554,25.369-56.554,56.554v13.716c-6.085-3.565-13.157-5.618-20.704-5.618
			c-32.146,0-61.919,10.334-86.188,27.845c-5.697-9.13-16.052-15.115-28.121-15.115C49.699,115.197,0,164.896,0,225.984v138.969
			c0,53.211,43.291,96.503,96.503,96.503c12.123,0,23.658-4.702,32.321-12.87c21.407,16.068,47.988,25.599,76.755,25.599
			c21.002,0,39.539-10.74,50.421-27.012c10.882,16.272,29.419,27.012,50.422,27.012c28.766,0,55.347-9.531,76.755-25.6
			c8.663,8.17,20.2,12.871,32.322,12.871c53.211,0,96.502-43.291,96.502-96.503V225.984C512,164.896,462.3,115.197,401.213,115.197z
			 M96.503,441.059c-41.965-0.001-76.104-34.141-76.104-76.105V225.984c0-49.84,40.548-90.388,90.389-90.388
			c5.24,0,10.52,2.803,11.998,8.177c-27.922,26.876-45.325,64.609-45.325,106.333v95.962c0,34.503,13.715,65.859,35.973,88.918
			C108.708,438.858,102.743,441.059,96.503,441.059z M245.801,413.565c0,22.178-18.043,40.222-40.222,40.222
			c-59.397,0-107.72-48.323-107.72-107.72v-95.962c0-70.159,57.079-127.238,127.238-127.238c11.416,0,20.703,9.287,20.703,20.704
			V413.565z M306.421,453.787c-22.178,0-40.222-18.043-40.222-40.222V143.571c0-11.416,9.287-20.704,20.704-20.704
			c70.158,0,127.237,57.079,127.237,127.238v95.962C414.141,405.464,365.818,453.787,306.421,453.787z M491.602,364.954
			c0,41.965-34.141,76.104-76.103,76.104c-6.241,0-12.206-2.201-16.931-6.074c22.258-23.058,35.972-54.415,35.972-88.917v-95.962
			c0-41.724-17.403-79.456-45.324-106.332c1.478-5.374,6.758-8.177,11.998-8.177c49.84,0,90.388,40.548,90.388,90.388V364.954z"/>
	</g>
</g>
<g>
	<g>
		<path d="M286.598,329.435c-5.632,0-10.199,4.566-10.199,10.199v77.514c0,5.633,4.567,10.199,10.199,10.199
			c5.632,0,10.199-4.566,10.199-10.199v-77.514C296.797,334.001,292.23,329.435,286.598,329.435z"/>
	</g>
</g>
<g>
	<g>
		<path d="M286.598,293.738c-5.632,0-10.199,4.566-10.199,10.199v7.139c0,5.633,4.567,10.199,10.199,10.199
			c5.632,0,10.199-4.566,10.199-10.199v-7.139C296.797,298.304,292.23,293.738,286.598,293.738z"/>
	</g>
</g>
</svg>